<?xml version="1.0" encoding="utf-8"?>
<!-- Generator: Adobe Illustrator 16.0.0, SVG Export Plug-In . SVG Version: 6.00 Build 0)  -->
<!DOCTYPE svg PUBLIC "-//W3C//DTD SVG 1.1//EN" "http://www.w3.org/Graphics/SVG/1.1/DTD/svg11.dtd">
<svg version="1.1" id="Layer_1" xmlns="http://www.w3.org/2000/svg" xmlns:xlink="http://www.w3.org/1999/xlink" x="0px" y="0px"
	 width="144px" height="144px" viewBox="0 0 144 144" enable-background="new 0 0 144 144" xml:space="preserve">
<path fill="#FFFFFF" d="M71.999,17.634L26.535,43.883v52.499l45.464,26.249l45.466-26.249V43.883L71.999,17.634z M110.188,92.181
	l-14.476,8.357c1.03-3.302,2.007-7.766,2.322-10.386c0.935-7.791,1.71-14.815,1.714-21.887c-0.001-0.529,0.004-1.059,0.008-1.588
	c0.006-0.665,0.012-1.331,0.008-1.995c-0.001-0.176,0.018-0.41,0.038-0.658c0.057-0.705,0.12-1.506-0.135-2.161
	c-0.296-0.759-0.242-1.755-0.185-2.809c0.045-0.83,0.091-1.688-0.039-2.497c-0.271-1.679-0.308-3.41-0.346-5.244
	c-0.037-1.738-0.074-3.536-0.331-5.278c-0.005-0.038-0.006-0.091-0.01-0.152c-0.025-0.469-0.104-1.898-1.325-1.898
	c-0.1,0-0.203,0.013-0.306,0.038c-0.365-0.384-0.964-0.585-1.749-0.585c-0.229,0-1.018,0.023-1.562,0.321
	c-0.143,0.079-0.301,0.154-0.461,0.231c-0.627,0.301-1.408,0.677-1.864,1.405c-0.411,0.657-0.481,1.419-0.542,2.092
	c-0.025,0.279-0.051,0.541-0.096,0.758c-0.156,0.743-0.355,1.496-0.548,2.225c-0.212,0.799-0.431,1.625-0.599,2.461
	c-0.266,1.304-0.832,3.25-1.557,4.438c-0.293,0.479-0.484,0.971-0.67,1.445c-0.152,0.394-0.297,0.764-0.486,1.094
	c-0.326,0.568-0.618,1.086-0.894,1.669c-0.497,1.054-1.093,2.016-1.677,2.71c-0.082,0.096-0.158,0.215-0.273,0.395
	c-0.052,0.079-0.146,0.226-0.252,0.379c-0.108-0.286-0.198-0.603-0.287-0.914c-0.064-0.229-0.129-0.452-0.199-0.664
	c-0.561-1.702-1.168-3.316-1.809-4.796l-0.197-0.458c-1.293-3.014-2.901-6.764-6.697-7.661c-0.191-0.045-0.398-0.068-0.613-0.068
	c-0.756,0-1.503,0.275-2.161,0.519c-0.193,0.071-0.377,0.139-0.546,0.192c-0.634,0.201-1.267,0.412-1.898,0.623
	c-0.39,0.13-0.778,0.259-1.168,0.387c-1.505,0.492-3.015,1.031-4.476,1.553l-0.952,0.339c-1.413,0.503-2.94,0.901-4.418,1.288
	l-0.621,0.162c-1.102,0.289-2.111,0.775-3.088,1.247c-0.618,0.297-1.201,0.579-1.797,0.809c-1.301,0.5-2.58,1.07-3.817,1.622
	c-0.646,0.288-1.294,0.577-1.946,0.857c-0.502,0.215-1.103,0.389-1.739,0.572c-1.19,0.345-2.421,0.7-3.372,1.422
	c-0.056,0.04-0.143,0.086-0.242,0.143c-0.579,0.326-1.371,0.774-1.541,1.562c-0.082,0.383,0.006,0.775,0.25,1.107
	c0.657,0.895,2.063,1.297,2.637,1.429c0.325,0.075,0.67,0.112,1.026,0.112c1.415,0,2.812-0.583,4.044-1.098
	c0.306-0.128,0.602-0.252,0.886-0.36c1.383-0.53,2.755-1.178,4.083-1.804c1.985-0.937,4.027-1.899,6.114-2.469
	c0.058,2.908,0.778,5.857,1.423,8.497c0.915,3.741,1.435,7.155,1.544,10.146c0.062,1.681-0.075,3.454-0.441,5.751
	c-0.231,1.449-0.784,3.176-1.5,3.766c-0.862,0.712-1.82,1.058-2.93,1.058c-1.763,0-3.667-0.865-5.467-1.751
	c-1.557-0.768-3.046-1.617-4.552-2.598c-0.373-0.243-1.244-0.811-1.389-1.17c-0.123-0.307-1.944-2.86-3.432-2.86
	c-0.138,0-0.273,0.02-0.401,0.059c-1.901,0.583-2.261,3.128-1.992,5.131c0.163,1.209,1.4,1.703,2.067,1.969
	c0.057,0.053,0.12,0.105,0.192,0.159c1.702,1.266,3.468,2.231,4.991,3.037c2.839,1.503,6.33,3.034,10.432,2.822
	c1.976-0.102,4.24-0.74,6.057-1.71c1.726-0.921,3.01-2.631,3.817-5.084c1.263-3.84,1.16-7.615,0.911-11.799
	c-0.165-2.77-0.756-5.554-1.328-8.247c-0.212-1-0.432-2.033-0.622-3.035c-0.326-1.715-0.585-3.424-0.794-5.222
	c-0.04-0.349-0.138-0.638-0.216-0.871c-0.004-0.013-0.009-0.026-0.014-0.04c0.552-0.192,1.108-0.373,1.665-0.554l0.773-0.253
	c0.201-0.066,0.494-0.187,0.9-0.353c0.98-0.402,2.804-1.149,3.595-1.151c0.192,0.246,0.422,0.729,0.58,1.065
	c0.103,0.218,0.2,0.424,0.291,0.591c0.266,0.494,0.474,0.959,0.616,1.384c0.308,0.915,0.673,1.818,1.024,2.692
	c0.281,0.694,0.57,1.412,0.824,2.118l0.165,0.461c0.533,1.493,1.083,3.036,1.831,4.48c0.977,1.888,2.934,3.106,4.984,3.106h0.049
	c2.062-0.02,3.271-1.023,4.551-2.087l0.33-0.272c1.157-0.949,1.955-2.154,2.728-3.319c0.261-0.394,0.521-0.787,0.794-1.166
	c0.15-0.208,0.318-0.52,0.531-0.914c0.083-0.151,0.197-0.362,0.326-0.59c0.008,0.344,0.015,0.688,0.022,1.031
	c0.103,4.671,0.208,9.501-0.31,14.191c-0.191,1.734-0.361,3.498-0.525,5.203c-0.141,1.466-0.281,2.931-0.438,4.395
	c-0.183,1.725-0.407,3.299-0.686,4.812c-0.062,0.337-0.107,0.679-0.152,1.021c-0.049,0.382-0.096,0.742-0.168,1.092
	c-0.229,1.1-0.92,3.951-1.191,4.501c-0.203,0.242-0.35,0.669-0.941,2.833c-0.105,0.388-0.189,0.696-0.221,0.79
	c-0.154,0.421-0.298,0.794-0.492,1.105c-0.135,0.215-0.21,0.44-0.229,0.667l-14.938,8.625L33.812,92.181V48.085l38.188-22.048
	l38.188,22.048V92.181z"/>
<g>
</g>
<g>
</g>
<g>
</g>
<g>
</g>
<g>
</g>
<g>
</g>
</svg>
