<?xml version="1.0" encoding="utf-8"?>
<!-- Generator: Adobe Illustrator 16.0.0, SVG Export Plug-In . SVG Version: 6.00 Build 0)  -->
<!DOCTYPE svg PUBLIC "-//W3C//DTD SVG 1.1//EN" "http://www.w3.org/Graphics/SVG/1.1/DTD/svg11.dtd">
<svg version="1.1" id="Layer_1" xmlns="http://www.w3.org/2000/svg" xmlns:xlink="http://www.w3.org/1999/xlink" x="0px" y="0px"
	 width="144px" height="144px" viewBox="0 0 144 144" enable-background="new 0 0 144 144" xml:space="preserve">
<path fill="#33F1FF" d="M71.896,17.634L26.535,43.823v52.378l45.361,26.189l45.36-26.189V43.823L71.896,17.634z M109.996,92.01
	l-14.442,8.338c1.027-3.294,2.003-7.748,2.317-10.362c0.934-7.771,1.705-14.78,1.707-21.836c0-0.528,0.005-1.056,0.01-1.583
	c0.006-0.665,0.012-1.328,0.008-1.992c-0.001-0.174,0.018-0.408,0.039-0.655c0.055-0.704,0.12-1.503-0.136-2.157
	c-0.295-0.758-0.242-1.75-0.185-2.802c0.045-0.829,0.091-1.684-0.038-2.491c-0.271-1.674-0.308-3.403-0.345-5.232
	c-0.037-1.735-0.074-3.527-0.329-5.266c-0.006-0.038-0.008-0.092-0.012-0.152c-0.026-0.468-0.104-1.894-1.321-1.894
	c-0.101,0-0.203,0.013-0.306,0.038c-0.365-0.383-0.961-0.583-1.745-0.583c-0.228,0-1.016,0.023-1.56,0.32
	c-0.141,0.079-0.299,0.153-0.459,0.231c-0.626,0.3-1.404,0.674-1.859,1.401c-0.409,0.656-0.48,1.417-0.542,2.088
	c-0.026,0.277-0.049,0.539-0.096,0.755c-0.154,0.741-0.353,1.493-0.545,2.219c-0.212,0.798-0.431,1.623-0.598,2.456
	c-0.266,1.301-0.831,3.243-1.555,4.428c-0.291,0.479-0.481,0.969-0.667,1.443c-0.152,0.392-0.297,0.762-0.486,1.091
	c-0.325,0.567-0.616,1.083-0.89,1.665c-0.497,1.052-1.091,2.011-1.675,2.704c-0.079,0.097-0.156,0.214-0.272,0.394
	c-0.052,0.079-0.146,0.226-0.252,0.378c-0.106-0.285-0.197-0.601-0.285-0.913c-0.064-0.228-0.128-0.451-0.197-0.662
	c-0.561-1.699-1.168-3.308-1.806-4.785l-0.196-0.457c-1.289-3.006-2.896-6.748-6.683-7.644c-0.192-0.045-0.397-0.067-0.612-0.067
	c-0.753,0-1.499,0.274-2.156,0.517c-0.192,0.071-0.375,0.139-0.543,0.191c-0.634,0.201-1.264,0.412-1.895,0.622
	c-0.388,0.129-0.776,0.258-1.165,0.386c-1.502,0.49-3.009,1.028-4.465,1.549l-0.95,0.338c-1.41,0.502-2.934,0.901-4.408,1.285
	l-0.619,0.163c-1.099,0.287-2.106,0.773-3.082,1.243c-0.616,0.297-1.197,0.578-1.792,0.808c-1.297,0.499-2.574,1.068-3.809,1.619
	c-0.645,0.287-1.29,0.575-1.941,0.854c-0.501,0.215-1.1,0.388-1.735,0.572c-1.188,0.344-2.417,0.699-3.363,1.419
	c-0.056,0.04-0.143,0.086-0.242,0.142c-0.578,0.326-1.368,0.772-1.537,1.559c-0.082,0.382,0.006,0.774,0.249,1.105
	c0.655,0.892,2.058,1.294,2.631,1.425c0.324,0.074,0.669,0.113,1.023,0.113c1.413,0,2.806-0.583,4.035-1.096
	c0.305-0.128,0.601-0.251,0.885-0.36c1.379-0.528,2.748-1.174,4.072-1.799c1.98-0.934,4.018-1.895,6.1-2.463
	c0.058,2.902,0.777,5.845,1.42,8.478c0.913,3.732,1.432,7.139,1.542,10.124c0.061,1.677-0.075,3.446-0.44,5.737
	c-0.23,1.446-0.782,3.169-1.496,3.757c-0.86,0.71-1.816,1.055-2.924,1.055c-1.758,0-3.659-0.863-5.454-1.746
	c-1.554-0.766-3.039-1.614-4.542-2.593c-0.372-0.242-1.241-0.808-1.385-1.167c-0.124-0.306-1.939-2.854-3.425-2.854
	c-0.137,0-0.272,0.021-0.4,0.061c-1.896,0.582-2.256,3.12-1.987,5.119c0.162,1.204,1.397,1.698,2.062,1.964
	c0.056,0.052,0.119,0.105,0.191,0.158c1.697,1.262,3.461,2.227,4.98,3.03c2.833,1.499,6.314,3.027,10.408,2.815
	c1.971-0.101,4.23-0.739,6.043-1.706c1.722-0.918,3.003-2.625,3.809-5.072c1.258-3.831,1.156-7.598,0.908-11.771
	c-0.164-2.763-0.754-5.541-1.325-8.228c-0.211-0.998-0.43-2.03-0.62-3.028c-0.325-1.713-0.584-3.417-0.792-5.21
	c-0.041-0.349-0.138-0.637-0.216-0.869c-0.004-0.013-0.009-0.027-0.013-0.041c0.551-0.192,1.105-0.372,1.661-0.552l0.771-0.252
	c0.202-0.066,0.493-0.186,0.898-0.353c0.978-0.401,2.798-1.146,3.586-1.149c0.193,0.245,0.42,0.729,0.579,1.063
	c0.103,0.217,0.2,0.422,0.29,0.59c0.268,0.492,0.473,0.956,0.616,1.379c0.307,0.913,0.67,1.815,1.021,2.686
	c0.28,0.692,0.569,1.41,0.822,2.114l0.165,0.46c0.53,1.49,1.081,3.029,1.826,4.471c0.975,1.882,2.927,3.099,4.974,3.099h0.049
	c2.057-0.02,3.263-1.021,4.541-2.083l0.328-0.271c1.154-0.947,1.951-2.15,2.721-3.312c0.261-0.394,0.521-0.786,0.792-1.165
	c0.149-0.207,0.318-0.518,0.531-0.911c0.083-0.151,0.196-0.363,0.324-0.589c0.008,0.343,0.017,0.686,0.023,1.028
	c0.103,4.661,0.206,9.479-0.309,14.159c-0.19,1.731-0.361,3.491-0.524,5.191c-0.141,1.463-0.282,2.924-0.438,4.385
	c-0.183,1.721-0.404,3.292-0.685,4.802c-0.061,0.336-0.106,0.678-0.15,1.02c-0.05,0.381-0.098,0.74-0.168,1.09
	c-0.229,1.097-0.917,3.94-1.188,4.491c-0.203,0.239-0.35,0.666-0.94,2.825c-0.105,0.386-0.188,0.694-0.221,0.788
	c-0.153,0.421-0.298,0.792-0.49,1.103c-0.135,0.214-0.21,0.439-0.228,0.665l-14.904,8.605L33.795,92.01V48.015l38.101-21.998
	l38.101,21.998V92.01z"/>
<g>
</g>
<g>
</g>
<g>
</g>
<g>
</g>
<g>
</g>
<g>
</g>
</svg>
